<svg id="Layer_1" data-name="Layer 1" xmlns="http://www.w3.org/2000/svg" viewBox="0 0 177.8 123.6"><defs><style>.cls-1{fill:#fff}</style></defs><title>glo</title><path class="cls-1" d="M153.5 0l-20.6 4.3v9.9l20.6-4.3V0zM34.4 23.2a34.55 34.55 0 1 0 19.5 63v2.9a19.61 19.61 0 0 1-19.5 19.6v14.9a34.55 34.55 0 0 0 34.4-34.5V27.5l-13.7 2.8a35.16 35.16 0 0 0-20.7-7.1zm0 54.3a19.6 19.6 0 1 1 19.5-19.6 19.61 19.61 0 0 1-19.5 19.6zm48 14.9h14.9V11.8l-14.9 3.1v77.5zm61-69a34.55 34.55 0 1 0 34.4 34.5 34.55 34.55 0 0 0-34.4-34.5zm0 54a19.6 19.6 0 1 1 19.5-19.6 19.61 19.61 0 0 1-19.5 19.6zM68.8 27.5z"/></svg>